Coordinates
version=1
nRows=12
nColumns=24
inDegrees=yes

Units are S.I. units (second, meters, Newtons, ...)
Angles are in degrees.

endheader
time	pelvis_tilt	pelvis_list	pelvis_rotation	pelvis_tx	pelvis_ty	pelvis_tz	hip_flexion_r	hip_adduction_r	hip_rotation_r	knee_angle_r	ankle_angle_r	subtalar_angle_r	mtp_angle_r	hip_flexion_l	hip_adduction_l	hip_rotation_l	knee_angle_l	ankle_angle_l	subtalar_angle_l	mtp_angle_l	lumbar_extension	lumbar_bending	lumbar_rotation
      3.22500000	     -1.37668567	      3.48252389	      0.45533355	     -1.51010671	      0.91134453	      0.20243930	     31.92940081	     -2.01830890	     -4.57646216	    -15.75974279	     11.21907291	     -3.49210947	      0.00000000	    -13.21390193	      8.22814564	      7.93334257	    -17.53093871	     23.94685738	    -12.39644232	      0.00000000	    -14.10959260	     -3.48262940	    -13.60722626
      3.23000000	     -1.34112280	      3.18932376	      0.52772211	     -1.50201982	      0.91049287	      0.20292095	     31.91226595	     -1.68778801	     -4.43513658	    -16.59253250	     10.50903086	     -4.09523046	      0.00000000	    -13.15939354	      7.82122591	      7.35802159	    -18.69213042	     23.96352541	    -11.54675698	      0.00000000	    -14.10221735	     -3.09031038	    -13.65738495
      3.23500000	     -1.36709950	      2.91331464	      0.41038215	     -1.49397221	      0.90956444	      0.20375700	     31.99585968	     -1.25492286	     -4.02438388	    -17.45868275	      9.64537596	     -4.74475388	      0.00000000	    -12.95648203	      7.43574671	      6.38588489	    -19.96453660	     23.94773303	    -10.50869673	      0.00000000	    -14.01939449	     -2.77637674	    -13.45853568
      3.24000000	     -1.43079626	      2.58051076	      0.33971263	     -1.48590923	      0.90873826	      0.20454049	     32.09834365	     -0.79088063	     -3.68242173	    -18.30741132	      8.68306348	     -5.39552669	      0.00000000	    -12.65763114	      6.97212303	      5.49812126	    -21.33607128	     23.81353828	     -9.52407534	      0.00000000	    -13.89108342	     -2.38053474	    -13.32186697
      3.24500000	     -1.51001755	      2.22030824	      0.21590898	     -1.47786200	      0.90799557	      0.20542222	     32.22797069	     -0.27339696	     -3.32478430	    -19.16966690	      7.68179895	     -5.99059709	      0.00000000	    -12.27970135	      6.46969253	      4.52615373	    -22.80268280	     23.56351794	     -8.53869352	      0.00000000	    -13.75019944	     -1.96818670	    -13.11718069
      3.25000000	     -1.61293304	      1.82348658	      0.08972888	     -1.46982712	      0.90734493	      0.20633857	     32.37933176	      0.28641478	     -2.96029625	    -20.03255163	      6.66219070	     -6.59644168	      0.00000000	    -11.80910189	      5.90705053	      3.54273904	    -24.37773657	     23.19206165	     -7.56272337	      0.00000000	    -13.58408030	     -1.51401582	    -12.89874983
      3.25500000	     -1.73092311	      1.40282744	     -0.05288733	     -1.46180233	      0.90677523	      0.20729750	     32.54743017	      0.88398475	     -2.57150107	    -20.90440398	      5.67535142	     -7.21040580	      0.00000000	    -11.25775792	      5.30110278	      2.55516474	    -26.05648531	     22.68715615	     -6.62043095	      0.00000000	    -13.40225721	     -1.03624398	    -12.65333971
      3.26000000	     -1.85500856	      0.96670011	     -0.20339607	     -1.45377560	      0.90629416	      0.20827247	     32.72205435	      1.50440946	     -2.18628675	    -21.79059359	      4.75839031	     -7.83265747	      0.00000000	    -10.64136900	      4.66399073	      1.60453930	    -27.82583421	     22.02094621	     -5.75279006	      0.00000000	    -13.21510372	     -0.54244789	    -12.40234098
      3.26500000	     -1.98144749	      0.55094749	     -0.37534841	     -1.44582880	      0.90586239	      0.20934704	     32.90165113	      2.14403799	     -1.67128417	    -22.68854051	      3.88865724	     -8.58758378	      0.00000000	     -9.95576726	      4.02703268	      0.67948817	    -29.69138400	     21.22120449	     -4.92599569	      0.00000000	    -13.03992494	     -0.08530282	    -12.16683044
      3.27000000	     -2.11483014	      0.09342914	     -0.53638660	     -1.43778062	      0.90550880	      0.21035637	     33.06770011	      2.80145500	     -1.28804244	    -23.57830640	      3.18763764	     -9.23562833	      0.00000000	     -9.21811034	      3.33566746	     -0.16826329	    -31.62960461	     20.25838823	     -4.20690859	      0.00000000	    -12.83729319	      0.43146162	    -11.91296842
      3.27500000	     -2.24307458	     -0.40046421	     -0.68917309	     -1.42960433	      0.90524188	      0.21132111	     33.19199327	      3.47680185	     -1.00963505	    -24.43569767	      2.68979229	     -9.80107412	      0.00000000	     -8.45291467	      2.60013255	     -0.92955918	    -33.61236687	     19.10913070	     -3.63780164	      0.00000000	    -12.61650950	      0.99619729	    -11.61612808
      3.28000000	     -2.36637912	     -0.83991254	     -0.86365649	     -1.42165757	      0.90497062	      0.21238029	     33.31653986	      4.14463523	     -0.57124266	    -25.29503427	      2.24211695	    -10.51435317	      0.00000000	     -7.61082517	      1.90812267	     -1.63341295	    -35.69830911	     17.88997607	     -3.10545487	      0.00000000	    -12.44667866	      1.48795606	    -11.39925358
